<?xml version="1.0" encoding="UTF-8"?>
<svg id="SVGDoc" width="16" height="16" xmlns="http://www.w3.org/2000/svg" version="1.1" xmlns:xlink="http://www.w3.org/1999/xlink" xmlns:avocode="https://avocode.com/" viewBox="0 0 16 16"><defs></defs><desc>Generated with Avocode.</desc><g><g><title>Vector</title><path d="M16.07,6.89678c0,1.50469 -0.4511,2.79069 -1.3501,3.85472c-0.8989,1.0673 -1.9658,1.5994 -3.2006,1.5994c-0.8397,0 -1.47523,-0.3199 -1.9066,-0.9629c-0.57295,0.6691 -1.26116,1.0053 -2.06791,1.0053c-0.90224,0 -1.67277,-0.3753 -2.31488,-1.1326c-0.64211,-0.754 -0.96152,-1.74948 -0.96152,-2.98c0,-1.25989 0.35893,-2.29131 1.08336,-3.09098c0.72113,-0.79968 1.59045,-1.20114 2.60465,-1.20114c0.63881,0 1.22823,0.21868 1.76497,0.65279l0.13501,-0.48633h2.10742l-0.6125,4.9645c-0.0362,0.33946 -0.0559,0.63321 -0.0559,0.88456c0,0.3101 0.1448,0.4635 0.4346,0.4635c0.5367,0 1.0537,-0.333 1.5509,-1.00534c0.4973,-0.66911 0.7475,-1.51122 0.7475,-2.51979c0,-1.47531 -0.5433,-2.6993 -1.6299,-3.67197c-1.0867,-0.97266 -2.42029,-1.45899 -3.99757,-1.45899c-1.71228,0 -3.15785,0.59404 -4.33011,1.7756c-1.17555,1.18482 -1.76497,2.66014 -1.76497,4.42921c0,1.62872 0.54991,3.04858 1.64643,4.25618c1.09982,1.211 2.65075,1.8148 4.65281,1.8148c1.25787,0 2.54871,-0.2807 3.86581,-0.8421c0.5104,-0.2154 1.0965,0.0196 1.304,0.5288c0.2008,0.4928 -0.0395,1.0542 -0.5335,1.2631c-1.5147,0.643 -3.059,0.9629 -4.63302,0.9629c-2.61123,0 -4.68574,-0.7866 -6.23009,-2.3599c-1.53776,-1.5732 -2.30829,-3.45 -2.30829,-5.63357c0,-2.27826 0.81004,-4.18115 2.42684,-5.71196c1.61679,-1.5308 3.57604,-2.29457 5.87446,-2.29457c2.1865,0 4.0173,0.67238 5.4892,2.01714c1.4752,1.34475 2.2095,2.97348 2.2095,4.87964zM9.5699,7.81722c0,-0.51571 -0.15147,-0.92697 -0.45442,-1.23705c-0.30294,-0.31008 -0.64869,-0.46348 -1.03725,-0.46348c-0.44783,0 -0.82321,0.20889 -1.12616,0.62015c-0.30294,0.41126 -0.45441,0.95308 -0.45441,1.62546c0,0.54508 0.10866,0.99878 0.32599,1.36434c0.21404,0.36556 0.49722,0.54836 0.84956,0.54836c0.51698,0 0.96151,-0.2513 1.33361,-0.74746c0.37209,-0.49939 0.55978,-1.06732 0.56308,-1.71032z" fill="#c1bbc9" fill-opacity="1"></path></g></g></svg>