<?xml version="1.0" encoding="UTF-8"?>
<svg id="SVGDoc" width="16" height="16" xmlns="http://www.w3.org/2000/svg" version="1.1"
     xmlns:xlink="http://www.w3.org/1999/xlink" xmlns:avocode="https://avocode.com/" viewBox="0 0 16 16">
    <defs></defs>
    <desc>Generated with Avocode.</desc>
    <g>
        <g>
            <title>Person Icon</title>
            <path d="M14,14h-12v-2c0,-1.08 1.151,-2.018 2.862,-2.546c0.732,0.934 1.859,1.546 3.138,1.546c1.279,0 2.406,-0.612 3.138,-1.546c1.711,0.528 2.862,1.466 2.862,2.546zM10,7c0,1.105 -0.895,2 -2,2c-1.105,0 -2,-0.895 -2,-2v-3c0,-1.105 0.895,-2 2,-2c1.105,0 2,0.895 2,2zM15,16c0.552,0 1,-0.448 1,-1v-3c0,-1.864 -1.648,-3.472 -4.068,-4.331c0.038,-0.218 0.068,-0.44 0.068,-0.669v-3c0,-2.209 -1.791,-4 -4,-4c-2.209,0 -4,1.791 -4,4v3c0,0.229 0.03,0.451 0.068,0.669c-2.42,0.859 -4.068,2.467 -4.068,4.331v3c0,0.552 0.448,1 1,1z"
                  fill="#ced0da" fill-opacity="1"></path>
        </g>
    </g>
</svg>
