<?xml version="1.0" encoding="UTF-8"?>
<svg id="SVGDoc" width="12" height="16" xmlns="http://www.w3.org/2000/svg" version="1.1" xmlns:xlink="http://www.w3.org/1999/xlink" xmlns:avocode="https://avocode.com/" viewBox="0 0 12 16"><defs></defs><desc>Generated with Avocode.</desc><g><g><title>Vector</title><path d="M11.6667,6c0.1842,0 0.3333,0.14909 0.3333,0.33334v8.33336c0,0.7353 -0.598,1.3333 -1.3333,1.3333h-9.33336c-0.73537,0 -1.33334,-0.598 -1.33334,-1.3333v-8.33336c0,-0.18425 0.14909,-0.33334 0.33334,-0.33334h1v-1.33334c0,-2.57322 2.09341,-4.66666 4.66666,-4.66666c2.57325,0 4.6667,2.09344 4.6667,4.66666v1.33334zM6.78781,11.0723c0.34147,-0.2484 0.54556,-0.6413 0.54556,-1.0723c0,-0.73538 -0.59796,-1.33334 -1.33334,-1.33334c-0.73537,0 -1.33334,0.598 -1.33334,1.33334c0,0.431 0.20409,0.8239 0.54556,1.0723l-0.21028,1.8909c-0.01044,0.0941 0.01984,0.1885 0.083,0.2591c0.06315,0.0707 0.15366,0.111 0.24837,0.111h1.33335c0.09472,0 0.18522,-0.0403 0.24837,-0.111c0.06316,-0.0706 0.09341,-0.165 0.083,-0.2591zM8.66666,6v-1.33334c0,-1.47038 -1.19628,-2.66666 -2.66666,-2.66666c-1.47038,0 -2.66666,1.19628 -2.66666,2.66666v1.33334z" fill="#ced0da" fill-opacity="1"></path></g></g></svg>